<?xml version="1.0" encoding="utf-8"?>
<svg fill="#000000" width="800px" height="800px" viewBox="0 -8 72 72" id="Layer_1" data-name="Layer 1" xmlns="http://www.w3.org/2000/svg">
  <title>line-chart</title>
  <rect x="12.149" y="5.477" width="5.367" height="40.407" style="stroke: rgb(0, 0, 0);"/>
  <rect x="29.975" y="15.351" width="5.367" height="40.407" style="stroke: rgb(0, 0, 0); stroke-width: 1; transform-box: fill-box; transform-origin: 50% 50%;" transform="matrix(0, 1, -1, 0, 5.743931, 12.501516)"/>
  <path style="stroke: rgb(0, 0, 0);" d="M 13.737 46.367 L 12.161 46.591 C 12.09 50.907 17.919 50.778 17.904 50.759 L 17.792 46.366 L 13.737 46.367 Z"/>
  <path style="stroke: rgb(0, 0, 0);" d="M 20.649 39.803 C 20.649 39.803 25.407 33.352 30.022 32.934 C 36.251 32.37 39.606 37.517 44.108 36.634 C 53.836 34.726 54.458 18.843 54.458 18.843 L 59.049 20.765 L 52.637 9.384 L 44.332 18.885 L 49.135 17.919 C 49.135 17.919 49.591 30.643 43.375 31.192 C 39.132 31.567 35.445 25.741 28.957 27.231 C 24.857 28.173 20.649 32.827 20.649 32.827 L 20.649 39.803 Z"/>
</svg>