<?xml version="1.0" encoding="utf-8"?>
<svg fill="#000000" width="800px" height="800px" viewBox="0 -8 72 72" id="Layer_1" data-name="Layer 1" xmlns="http://www.w3.org/2000/svg">
  <title>line-chart</title>
  <path d="M55.78,20.72c.52.33.9.1.85-.52l-.88-9.61a.81.81,0,0,0-1.15-.72l-9,3.38c-.58.22-.62.66-.1,1l1.68,1a1.1,1.1,0,0,1,.33,1.54L40.64,27.21a1.48,1.48,0,0,1-1.67.53l-10.62-4a1.68,1.68,0,0,0-1.76.47l-6.67,8.07a3.68,3.68,0,0,0-.72,2l0,6.59c0,.62.32.74.72.27l8.59-10a1.71,1.71,0,0,1,1.78-.45L41,34.71a1.48,1.48,0,0,0,1.67-.53L52.2,19.8a1.17,1.17,0,0,1,1.57-.34Z"/>
  <rect x="12.149" y="5.477" width="5.367" height="40.407" style="stroke: rgb(0, 0, 0);"/>
  <rect x="29.975" y="15.351" width="5.367" height="40.407" style="stroke: rgb(0, 0, 0); stroke-width: 1; transform-box: fill-box; transform-origin: 50% 50%;" transform="matrix(0, 1, -1, 0, 5.743931, 12.501516)"/>
  <path style="stroke: rgb(0, 0, 0);" d="M 13.737 46.367 L 12.161 46.591 C 12.09 50.907 17.919 50.778 17.904 50.759 L 17.792 46.366 L 13.737 46.367 Z"/>
</svg>