<svg xmlns="http://www.w3.org/2000/svg" viewBox="0 0 36 36">
<path fill="#BD3D44" d="M32 5H4C1.791 5 0 6.791 0 9v18c0 2.209 1.791 4 4 4h28c2.209 0 4-1.791 4-4V9c0-2.209-1.791-4-4-4z"/>
<path fill="#FFFFFF" d="M36 27c0 2.209-1.791 4-4 4H4c-2.209 0-4-1.791-4-4v-2h36v2zm0-6H0v2h36v-2zm0-6H0v2h36v-2zm0-6H0v2h36V9z"/>
<path fill="#192F5D" d="M0 15h19V5H4C1.791 5 0 6.791 0 9v6z"/>
<path fill="#FFFFFF" d="M9 7L8 8.4l-1-1.4L6 8.4l-1-1.4L4 8.4V7l1-1.4 1 1.4 1-1.4 1 1.4 1-1.4zM9 13l-1 1.4-1-1.4L6 14.4l-1-1.4L4 14.4v-1.4l1-1.4 1 1.4 1-1.4 1 1.4 1-1.4zm0-3l-1 1.4-1-1.4L6 11.4l-1-1.4L4 11.4V8.6l1-1.4 1 1.4 1-1.4 1 1.4 1-1.4zm4.5 0l-1 1.4-1-1.4-1 1.4-1-1.4-1 1.4v-2.8l1-1.4 1 1.4 1-1.4 1 1.4 1-1.4zM18 10l-1 1.4-1-1.4-1 1.4-1-1.4-1 1.4v-2.8l1-1.4 1 1.4 1-1.4 1 1.4 1-1.4zm0 6l-1 1.4-1-1.4-1 1.4-1-1.4-1 1.4v-2.8l1-1.4 1 1.4 1-1.4 1 1.4 1-1.4z"/>
</svg>
