<svg viewBox="0 0 100 100" xmlns="http://www.w3.org/2000/svg">
  <defs>
    <!-- Gradient for fire effect -->
    <linearGradient id="fireGradient" x1="0%" y1="100%" x2="0%" y2="0%">
      <stop offset="0%" style="stop-color:#FF4500;stop-opacity:1" />
      <stop offset="50%" style="stop-color:#FF6B35;stop-opacity:1" />
      <stop offset="100%" style="stop-color:#FFB627;stop-opacity:1" />
    </linearGradient>
    
    <!-- Gradient for chart lines -->
    <linearGradient id="chartGradient" x1="0%" y1="0%" x2="100%" y2="0%">
      <stop offset="0%" style="stop-color:#00D9FF;stop-opacity:1" />
      <stop offset="100%" style="stop-color:#0099FF;stop-opacity:1" />
    </linearGradient>
    
    <!-- Glow effect -->
    <filter id="glow">
      <feGaussianBlur stdDeviation="2" result="coloredBlur"/>
      <feMerge>
        <feMergeNode in="coloredBlur"/>
        <feMergeNode in="SourceGraphic"/>
      </feMerge>
    </filter>
  </defs>
  
  <!-- Fire/Flame icon with market chart integration -->
  <g transform="translate(10, 10)">
    <!-- Outer flame -->
    <path d="M 40 70 C 20 50, 15 30, 25 10 C 30 -5, 40 -15, 40 -15 C 40 -15, 50 -5, 55 10 C 65 30, 60 50, 40 70 Z" 
          fill="url(#fireGradient)" 
          opacity="0.8"
          filter="url(#glow)">
      <animate attributeName="d" 
               dur="2s" 
               repeatCount="indefinite"
               values="M 40 70 C 20 50, 15 30, 25 10 C 30 -5, 40 -15, 40 -15 C 40 -15, 50 -5, 55 10 C 65 30, 60 50, 40 70 Z;
                       M 40 70 C 22 52, 17 32, 27 12 C 32 -3, 40 -13, 40 -13 C 40 -13, 48 -3, 53 12 C 63 32, 58 52, 40 70 Z;
                       M 40 70 C 20 50, 15 30, 25 10 C 30 -5, 40 -15, 40 -15 C 40 -15, 50 -5, 55 10 C 65 30, 60 50, 40 70 Z"/>
    </path>
    
    <!-- Inner flame -->
    <path d="M 40 60 C 28 48, 25 35, 32 22 C 35 15, 40 8, 40 8 C 40 8, 45 15, 48 22 C 55 35, 52 48, 40 60 Z" 
          fill="#FFD700" 
          opacity="0.9">
      <animate attributeName="d" 
               dur="1.5s" 
               repeatCount="indefinite"
               values="M 40 60 C 28 48, 25 35, 32 22 C 35 15, 40 8, 40 8 C 40 8, 45 15, 48 22 C 55 35, 52 48, 40 60 Z;
                       M 40 60 C 30 50, 27 37, 34 24 C 37 17, 40 10, 40 10 C 40 10, 43 17, 46 24 C 53 37, 50 50, 40 60 Z;
                       M 40 60 C 28 48, 25 35, 32 22 C 35 15, 40 8, 40 8 C 40 8, 45 15, 48 22 C 55 35, 52 48, 40 60 Z"/>
    </path>
    
    <!-- Market chart line integrated into flame -->
    <polyline points="10,40 20,35 30,25 40,20 50,30 60,25 70,35" 
              fill="none" 
              stroke="url(#chartGradient)" 
              stroke-width="2" 
              stroke-linecap="round"
              opacity="0.8">
      <animate attributeName="points" 
               dur="3s" 
               repeatCount="indefinite"
               values="10,40 20,35 30,25 40,20 50,30 60,25 70,35;
                       10,42 20,37 30,27 40,18 50,28 60,23 70,33;
                       10,40 20,35 30,25 40,20 50,30 60,25 70,35"/>
    </polyline>
    
    <!-- Candlestick elements -->
    <rect x="15" y="30" width="2" height="6" fill="#00D9FF" opacity="0.7"/>
    <rect x="35" y="18" width="2" height="8" fill="#00D9FF" opacity="0.7"/>
    <rect x="55" y="23" width="2" height="7" fill="#00D9FF" opacity="0.7"/>
  </g>
</svg>
