<svg width="436" height="141" viewBox="0 0 436 141" fill="none" xmlns="http://www.w3.org/2000/svg">
<g filter="url(#filter0_f_2_3)">
<animateMotion dur="8s" repeatCount="indefinite" rotate="auto">
  <mpath href="#orbitPath"/>
</animateMotion>
<animateTransform attributeName="transform" type="rotate" from="0 49.2082 93.381" to="360 49.2082 93.381" dur="12s" repeatCount="indefinite"/>
<path opacity="0.9" d="M49.2082 71L53.0415 82.1905L58.7915 79.3929L54.9582 87.7857L61.1873 88.9048L53.9998 93.381L61.1873 97.8572L54.9582 98.9762L58.7915 107.369L53.0415 104.571L49.2082 115.762L45.3749 104.571L39.6249 107.369L43.4582 98.9762L37.2291 97.8572L44.4166 93.381L37.2291 88.9048L43.4582 87.7857L39.6249 79.3929L45.3749 82.1905L49.2082 71Z" fill="url(#paint0_linear_2_3)"/>
<path d="M49.2082 79.3929L51.604 86.6667L54.9582 84.9881L53.0415 90.5833L56.3956 91.7024L52.0832 93.381L56.3956 95.0595L53.0415 96.1786L54.9582 101.774L51.604 100.095L49.2082 107.369L46.8124 100.095L43.4582 101.774L45.3749 96.1786L42.0208 95.0595L46.3332 93.381L42.0208 91.7024L45.3749 90.5833L43.4582 84.9881L46.8124 86.6667L49.2082 79.3929Z" fill="url(#paint1_linear_2_3)"/>
<path opacity="0.8" d="M49.2082 101.774C53.1777 101.774 56.3956 98.0162 56.3956 93.381C56.3956 88.7457 53.1777 84.9881 49.2082 84.9881C45.2387 84.9881 42.0208 88.7457 42.0208 93.381C42.0208 98.0162 45.2387 101.774 49.2082 101.774Z" fill="white"/>
<circle cx="49.2082" cy="93.381" r="6" fill="#FFFFFF" opacity="0.7">
  <animate attributeName="r" values="6;8;6" dur="2s" repeatCount="indefinite"/>
  <animate attributeName="opacity" values="0.7;0.3;0.7" dur="2s" repeatCount="indefinite"/>
</circle>
</g>
<path d="M49.2082 75.4762C50.0021 75.4762 50.6457 74.7247 50.6457 73.7976C50.6457 72.8706 50.0021 72.119 49.2082 72.119C48.4143 72.119 47.7707 72.8706 47.7707 73.7976C47.7707 74.7247 48.4143 75.4762 49.2082 75.4762Z" fill="#00D9FF">
  <animateMotion dur="8s" repeatCount="indefinite" rotate="auto" begin="0s">
    <mpath href="#orbitPath"/>
  </animateMotion>
</path>
<path d="M65.9789 95.0595C66.7728 95.0595 67.4164 94.308 67.4164 93.381C67.4164 92.4539 66.7728 91.7024 65.9789 91.7024C65.185 91.7024 64.5414 92.4539 64.5414 93.381C64.5414 94.308 65.185 95.0595 65.9789 95.0595Z" fill="#00D9FF">
  <animateMotion dur="8s" repeatCount="indefinite" rotate="auto" begin="0.6s">
    <mpath href="#orbitPath"/>
  </animateMotion>
</path>
<path d="M49.2082 114.643C50.0021 114.643 50.6457 113.891 50.6457 112.964C50.6457 112.037 50.0021 111.286 49.2082 111.286C48.4143 111.286 47.7707 112.037 47.7707 112.964C47.7707 113.891 48.4143 114.643 49.2082 114.643Z" fill="#00D9FF">
  <animateMotion dur="8s" repeatCount="indefinite" rotate="auto" begin="1.2s">
    <mpath href="#orbitPath"/>
  </animateMotion>
</path>
<path d="M32.4375 95.0595C33.2314 95.0595 33.875 94.308 33.875 93.381C33.875 92.4539 33.2314 91.7024 32.4375 91.7024C31.6436 91.7024 31 92.4539 31 93.381C31 94.308 31.6436 95.0595 32.4375 95.0595Z" fill="#00D9FF">
  <animateMotion dur="8s" repeatCount="indefinite" rotate="auto" begin="1.8s">
    <mpath href="#orbitPath"/>
  </animateMotion>
</path>
<path d="M51.8557 60.5649V27.1104H74.0062V32.9421H58.9288V40.9137H72.5361V46.7453H58.9288V60.5649H51.8557ZM85.837 27.1104V60.5649H78.7639V27.1104H85.837ZM91.6565 60.5649V27.1104H104.855C107.382 27.1104 109.538 27.5623 111.324 28.4662C113.121 29.3592 114.488 30.6279 115.424 32.2723C116.372 33.9058 116.845 35.828 116.845 38.0387C116.845 40.2602 116.366 42.1715 115.408 43.7723C114.45 45.3623 113.061 46.582 111.242 47.4314C109.435 48.2808 107.246 48.7056 104.676 48.7056H95.8383V43.0209H103.532C104.883 43.0209 106.004 42.8358 106.897 42.4655C107.79 42.0952 108.455 41.5398 108.89 40.7993C109.337 40.0588 109.56 39.1386 109.56 38.0387C109.56 36.9279 109.337 35.9913 108.89 35.229C108.455 34.4667 107.785 33.8895 106.881 33.4975C105.988 33.0945 104.861 32.8931 103.499 32.8931H98.7296V60.5649H91.6565ZM109.723 45.3405L118.038 60.5649H110.23L102.095 45.3405H109.723ZM121.844 60.5649V27.1104H144.387V32.9421H128.917V40.9137H143.227V46.7453H128.917V54.7333H144.452V60.5649H121.844Z" fill="#F51339"/>
<path d="M169.289 27.5455H178.012L187.225 50.0227H187.617L196.83 27.5455H205.553V61H198.693V39.2251H198.415L189.757 60.8366H185.085L176.428 39.1435H176.15V61H169.289V27.5455ZM217.147 61H209.568L221.117 27.5455H230.232L241.765 61H234.185L225.805 35.1903H225.544L217.147 61ZM216.674 47.8501H234.577V53.3714H216.674V47.8501ZM245.791 61V27.5455H258.99C261.517 27.5455 263.673 27.9974 265.459 28.9013C267.256 29.7943 268.622 31.063 269.559 32.7074C270.506 34.3409 270.98 36.263 270.98 38.4737C270.98 40.6953 270.501 42.6065 269.543 44.2074C268.584 45.7973 267.196 47.017 265.377 47.8665C263.569 48.7159 261.38 49.1406 258.81 49.1406H249.973V43.456H257.667C259.017 43.456 260.139 43.2708 261.032 42.9006C261.925 42.5303 262.589 41.9749 263.025 41.2344C263.471 40.4938 263.695 39.5736 263.695 38.4737C263.695 37.3629 263.471 36.4264 263.025 35.6641C262.589 34.9018 261.92 34.3246 261.016 33.9325C260.123 33.5296 258.996 33.3281 257.634 33.3281H252.864V61H245.791ZM263.858 45.7756L272.173 61H264.364L256.229 45.7756H263.858ZM275.979 61V27.5455H283.052V42.2962H283.493L295.532 27.5455H304.01L291.595 42.5249L304.157 61H295.695L286.531 47.2457L283.052 51.4929V61H275.979ZM307.694 61V27.5455H330.236V33.3771H314.767V41.3487H329.076V47.1804H314.767V55.1683H330.302V61H307.694ZM334.585 33.3771V27.5455H362.061V33.3771H351.819V61H344.828V33.3771H334.585ZM384.735 37.1669C384.604 35.8492 384.043 34.8255 383.052 34.0959C382.061 33.3662 380.716 33.0014 379.017 33.0014C377.863 33.0014 376.888 33.1648 376.093 33.4915C375.298 33.8073 374.688 34.2483 374.264 34.8146C373.85 35.3809 373.643 36.0234 373.643 36.7422C373.621 37.3411 373.746 37.8639 374.019 38.3104C374.302 38.7569 374.688 39.1435 375.178 39.4702C375.669 39.786 376.235 40.0637 376.877 40.3033C377.52 40.532 378.206 40.728 378.936 40.8913L381.941 41.6101C383.401 41.9368 384.74 42.3724 385.96 42.9169C387.179 43.4614 388.236 44.1312 389.129 44.9261C390.022 45.7211 390.713 46.6577 391.203 47.7358C391.704 48.8139 391.96 50.05 391.971 51.4439C391.96 53.4912 391.437 55.2663 390.403 56.7692C389.379 58.2611 387.898 59.4209 385.96 60.2486C384.032 61.0653 381.707 61.4737 378.985 61.4737C376.284 61.4737 373.932 61.0599 371.928 60.2322C369.935 59.4046 368.378 58.1795 367.256 56.5568C366.145 54.9233 365.562 52.9032 365.508 50.4964H372.352C372.429 51.6181 372.75 52.5547 373.316 53.3061C373.893 54.0466 374.661 54.6075 375.62 54.9886C376.589 55.3589 377.683 55.544 378.903 55.544C380.101 55.544 381.141 55.3698 382.023 55.0213C382.916 54.6728 383.607 54.1882 384.098 53.5675C384.588 52.9467 384.833 52.2334 384.833 51.4276C384.833 50.6761 384.609 50.0445 384.163 49.5327C383.727 49.0208 383.085 48.5852 382.235 48.2259C381.397 47.8665 380.368 47.5398 379.148 47.2457L375.505 46.331C372.685 45.6449 370.458 44.5722 368.824 43.1129C367.191 41.6536 366.379 39.688 366.39 37.2159C366.379 35.1903 366.918 33.4207 368.007 31.907C369.107 30.3932 370.616 29.2116 372.532 28.3622C374.449 27.5128 376.627 27.0881 379.066 27.0881C381.549 27.0881 383.716 27.5128 385.568 28.3622C387.43 29.2116 388.878 30.3932 389.913 31.907C390.947 33.4207 391.481 35.174 391.514 37.1669H384.735Z" fill="#1A202C"/>
<path opacity="0.5" d="M406.654 68.62H48.9388V70.791H406.654V68.62Z" fill="url(#paint2_linear_2_3)"/>
<path d="M94.066 96.84H106.066V84.84H94.066V96.84ZM109.602 96V87.2727H113.045C113.704 87.2727 114.267 87.3906 114.733 87.6264C115.201 87.8594 115.558 88.1903 115.802 88.6193C116.049 89.0455 116.173 89.5469 116.173 90.1236C116.173 90.7031 116.048 91.2017 115.798 91.6193C115.548 92.0341 115.186 92.3523 114.711 92.5739C114.24 92.7955 113.669 92.9062 112.998 92.9062H110.693V91.4233H112.7C113.052 91.4233 113.345 91.375 113.578 91.2784C113.811 91.1818 113.984 91.0369 114.098 90.8438C114.214 90.6506 114.272 90.4105 114.272 90.1236C114.272 89.8338 114.214 89.5895 114.098 89.3906C113.984 89.1918 113.809 89.0412 113.574 88.9389C113.341 88.8338 113.047 88.7812 112.691 88.7812H111.447V96H109.602ZM114.315 92.0284L116.484 96H114.447L112.325 92.0284H114.315ZM117.477 96V87.2727H123.358V88.794H119.322V90.8736H123.055V92.3949H119.322V94.4787H123.375V96H117.477ZM126.329 96H124.352L127.364 87.2727H129.742L132.751 96H130.773L128.587 89.267H128.519L126.329 96ZM126.205 92.5696H130.876V94.0099H126.205V92.5696ZM133.801 96V87.2727H135.646V94.4787H139.388V96H133.801ZM144.244 90.9162V92.3565H140.263V90.9162H144.244ZM145.129 88.794V87.2727H152.297V88.794H149.625V96H147.801V88.794H145.129ZM155.322 87.2727V96H153.477V87.2727H155.322ZM156.84 87.2727H159.116L161.519 93.1364H161.621L164.025 87.2727H166.3V96H164.511V90.3196H164.438L162.18 95.9574H160.961L158.702 90.2983H158.63V96H156.84V87.2727ZM167.821 96V87.2727H173.701V88.794H169.666V90.8736H173.399V92.3949H169.666V94.4787H173.718V96H167.821ZM177.946 96V87.2727H183.724V88.794H179.791V90.8736H183.341V92.3949H179.791V96H177.946ZM186.81 87.2727V96H184.965V87.2727H186.81ZM195.628 87.2727V96H194.034L190.238 90.5071H190.174V96H188.328V87.2727H189.948L193.715 92.7614H193.792V87.2727H195.628ZM198.657 96H196.68L199.692 87.2727H202.07L205.079 96H203.102L200.915 89.267H200.847L198.657 96ZM198.533 92.5696H203.204V94.0099H198.533V92.5696ZM213.429 87.2727V96H211.835L208.038 90.5071H207.974V96H206.129V87.2727H207.749L211.516 92.7614H211.592V87.2727H213.429ZM222.654 90.3281H220.787C220.753 90.0866 220.684 89.8722 220.578 89.6847C220.473 89.4943 220.338 89.3324 220.174 89.1989C220.009 89.0653 219.819 88.9631 219.603 88.892C219.39 88.821 219.158 88.7855 218.908 88.7855C218.456 88.7855 218.063 88.8977 217.728 89.1222C217.392 89.3437 217.132 89.6676 216.948 90.0938C216.763 90.517 216.671 91.0312 216.671 91.6364C216.671 92.2585 216.763 92.7812 216.948 93.2045C217.135 93.6278 217.397 93.9474 217.732 94.1634C218.067 94.3793 218.455 94.4872 218.895 94.4872C219.142 94.4872 219.371 94.4545 219.581 94.3892C219.794 94.3239 219.983 94.2287 220.148 94.1037C220.313 93.9759 220.449 93.821 220.557 93.6392C220.668 93.4574 220.745 93.25 220.787 93.017L222.654 93.0256C222.605 93.4261 222.485 93.8125 222.292 94.1847C222.101 94.554 221.844 94.8849 221.52 95.1776C221.199 95.4673 220.816 95.6974 220.37 95.8679C219.926 96.0355 219.425 96.1193 218.865 96.1193C218.087 96.1193 217.391 95.9432 216.777 95.5909C216.167 95.2386 215.684 94.7287 215.328 94.0611C214.976 93.3935 214.8 92.5852 214.8 91.6364C214.8 90.6847 214.979 89.875 215.337 89.2074C215.695 88.5398 216.181 88.0312 216.794 87.6818C217.408 87.3295 218.098 87.1534 218.865 87.1534C219.371 87.1534 219.84 87.2244 220.272 87.3665C220.706 87.5085 221.091 87.7159 221.426 87.9886C221.762 88.2585 222.034 88.5895 222.245 88.9815C222.458 89.3736 222.594 89.8224 222.654 90.3281ZM225.822 87.2727V96H223.977V87.2727H225.822ZM228.844 96H226.867L229.88 87.2727H232.258L235.266 96H233.289L231.103 89.267H231.035L228.844 96ZM228.721 92.5696H233.391V94.0099H228.721V92.5696ZM236.317 96V87.2727H238.162V94.4787H241.903V96H236.317ZM248.996 96H245.903V87.2727H249.022C249.9 87.2727 250.656 87.4474 251.289 87.7969C251.923 88.1435 252.41 88.642 252.751 89.2926C253.094 89.9432 253.266 90.7216 253.266 91.6278C253.266 92.5369 253.094 93.3182 252.751 93.9716C252.41 94.625 251.92 95.1264 251.281 95.4759C250.644 95.8253 249.883 96 248.996 96ZM247.748 94.419H248.92C249.465 94.419 249.924 94.3224 250.296 94.1293C250.671 93.9332 250.952 93.6307 251.14 93.2216C251.33 92.8097 251.425 92.2784 251.425 91.6278C251.425 90.983 251.33 90.456 251.14 90.0469C250.952 89.6378 250.673 89.3366 250.3 89.1435C249.928 88.9503 249.469 88.8537 248.924 88.8537H247.748V94.419ZM255.645 96H253.668L256.681 87.2727H259.059L262.067 96H260.09L257.904 89.267H257.836L255.645 96ZM255.522 92.5696H260.192V94.0099H255.522V92.5696ZM261.719 88.794V87.2727H268.886V88.794H266.214V96H264.391V88.794H261.719ZM270.505 96H268.527L271.54 87.2727H273.918L276.926 96H274.949L272.763 89.267H272.695L270.505 96ZM270.381 92.5696H275.051V94.0099H270.381V92.5696ZM280.754 96V87.2727H284.197C284.859 87.2727 285.423 87.3991 285.889 87.652C286.355 87.902 286.71 88.25 286.955 88.696C287.202 89.1392 287.325 89.6506 287.325 90.2301C287.325 90.8097 287.2 91.321 286.95 91.7642C286.7 92.2074 286.338 92.5526 285.864 92.7997C285.392 93.0469 284.821 93.1705 284.151 93.1705H281.956V91.6918H283.852C284.207 91.6918 284.5 91.6307 284.73 91.5085C284.963 91.3835 285.136 91.2116 285.25 90.9929C285.366 90.7713 285.425 90.517 285.425 90.2301C285.425 89.9403 285.366 89.6875 285.25 89.4716C285.136 89.2528 284.963 89.0838 284.73 88.9645C284.497 88.8423 284.202 88.7812 283.844 88.7812H282.599V96H280.754ZM288.524 96V87.2727H290.369V94.4787H294.11V96H288.524ZM297.059 96H295.082L298.095 87.2727H300.473L303.481 96H301.504L299.318 89.267H299.25L297.059 96ZM296.936 92.5696H301.606V94.0099H296.936V92.5696ZM303.133 88.794V87.2727H310.3V88.794H307.629V96H305.805V88.794H303.133ZM311.481 96V87.2727H317.259V88.794H313.326V90.8736H316.876V92.3949H313.326V96H311.481ZM326.52 91.6364C326.52 92.5881 326.34 93.3977 325.979 94.0653C325.621 94.733 325.132 95.2429 324.513 95.5952C323.897 95.9446 323.203 96.1193 322.434 96.1193C321.658 96.1193 320.962 95.9432 320.346 95.5909C319.729 95.2386 319.242 94.7287 318.884 94.0611C318.526 93.3935 318.347 92.5852 318.347 91.6364C318.347 90.6847 318.526 89.875 318.884 89.2074C319.242 88.5398 319.729 88.0312 320.346 87.6818C320.962 87.3295 321.658 87.1534 322.434 87.1534C323.203 87.1534 323.897 87.3295 324.513 87.6818C325.132 88.0312 325.621 88.5398 325.979 89.2074C326.34 89.875 326.52 90.6847 326.52 91.6364ZM324.649 91.6364C324.649 91.0199 324.557 90.5 324.373 90.0767C324.191 89.6534 323.934 89.3324 323.601 89.1136C323.269 88.8949 322.88 88.7855 322.434 88.7855C321.988 88.7855 321.598 88.8949 321.266 89.1136C320.934 89.3324 320.675 89.6534 320.49 90.0767C320.309 90.5 320.218 91.0199 320.218 91.6364C320.218 92.2528 320.309 92.7727 320.49 93.196C320.675 93.6193 320.934 93.9403 321.266 94.1591C321.598 94.3778 321.988 94.4872 322.434 94.4872C322.88 94.4872 323.269 94.3778 323.601 94.1591C323.934 93.9403 324.191 93.6193 324.373 93.196C324.557 92.7727 324.649 92.2528 324.649 91.6364ZM327.887 96V87.2727H331.33C331.989 87.2727 332.552 87.3906 333.018 87.6264C333.486 87.8594 333.843 88.1903 334.087 88.6193C334.335 89.0455 334.458 89.5469 334.458 90.1236C334.458 90.7031 334.333 91.2017 334.083 91.6193C333.833 92.0341 333.471 92.3523 332.996 92.5739C332.525 92.7955 331.954 92.9062 331.283 92.9062H328.978V91.4233H330.985C331.337 91.4233 331.63 91.375 331.863 91.2784C332.096 91.1818 332.269 91.0369 332.383 90.8438C332.499 90.6506 332.558 90.4105 332.558 90.1236C332.558 89.8338 332.499 89.5895 332.383 89.3906C332.269 89.1918 332.094 89.0412 331.859 88.9389C331.626 88.8338 331.332 88.7812 330.977 88.7812H329.732V96H327.887ZM332.6 92.0284L334.769 96H332.732L330.61 92.0284H332.6ZM335.762 87.2727H338.038L340.441 93.1364H340.543L342.947 87.2727H345.222V96H343.433V90.3196H343.36L341.102 95.9574H339.883L337.624 90.2983H337.552V96H335.762V87.2727ZM348.761 96.84H360.761V84.84H348.761V96.84Z" fill="#64748B"/>
<path d="M100.577 114.769C102.429 114.769 103.93 113.311 103.93 111.513C103.93 109.714 102.429 108.256 100.577 108.256C98.7244 108.256 97.223 109.714 97.223 111.513C97.223 113.311 98.7244 114.769 100.577 114.769Z" fill="#10B981"/>
<path d="M110.152 115V107.727H111.689V113.732H114.807V115H110.152ZM117.363 107.727V115H115.825V107.727H117.363ZM119.942 107.727L121.7 113.253H121.767L123.529 107.727H125.233L122.726 115H120.745L118.234 107.727H119.942ZM126.109 115V107.727H131.009V108.995H127.646V110.728H130.757V111.996H127.646V113.732H131.023V115H126.109Z" fill="#10B981"/>
<path d="M150.88 115.715H159.88V106.715H150.88V115.715Z" fill="#3B82F6"/>
<path d="M166.784 110.176C166.745 109.853 166.59 109.601 166.317 109.422C166.044 109.243 165.71 109.154 165.314 109.154C165.024 109.154 164.77 109.201 164.553 109.294C164.338 109.388 164.169 109.517 164.048 109.681C163.929 109.845 163.869 110.032 163.869 110.24C163.869 110.415 163.91 110.565 163.994 110.691C164.079 110.815 164.187 110.918 164.32 111.001C164.452 111.082 164.59 111.149 164.735 111.202C164.88 111.253 165.013 111.295 165.135 111.327L165.799 111.506C165.97 111.551 166.159 111.612 166.368 111.691C166.579 111.77 166.781 111.878 166.972 112.014C167.166 112.148 167.326 112.321 167.452 112.532C167.577 112.743 167.64 113.002 167.64 113.308C167.64 113.662 167.548 113.982 167.362 114.267C167.179 114.553 166.91 114.78 166.557 114.948C166.205 115.116 165.778 115.201 165.275 115.201C164.806 115.201 164.401 115.125 164.058 114.974C163.717 114.822 163.448 114.611 163.252 114.341C163.058 114.07 162.948 113.756 162.923 113.398H163.741C163.762 113.645 163.846 113.85 163.99 114.012C164.137 114.171 164.323 114.291 164.546 114.37C164.772 114.446 165.015 114.485 165.275 114.485C165.578 114.485 165.849 114.436 166.09 114.338C166.331 114.237 166.522 114.099 166.662 113.922C166.803 113.743 166.873 113.534 166.873 113.296C166.873 113.078 166.812 112.902 166.691 112.765C166.57 112.629 166.41 112.518 166.212 112.433C166.013 112.348 165.799 112.273 165.569 112.209L164.764 111.979C164.252 111.832 163.848 111.622 163.549 111.349C163.251 111.077 163.102 110.72 163.102 110.279C163.102 109.912 163.201 109.593 163.399 109.32C163.599 109.045 163.868 108.832 164.205 108.681C164.543 108.527 164.921 108.451 165.339 108.451C165.761 108.451 166.136 108.526 166.464 108.677C166.792 108.827 167.052 109.031 167.244 109.291C167.438 109.551 167.54 109.846 167.551 110.176H166.784ZM170.976 110.176V110.816H168.432V110.176H170.976ZM169.174 109H169.928V113.679C169.928 113.892 169.959 114.052 170.02 114.159C170.084 114.263 170.165 114.333 170.263 114.37C170.364 114.404 170.469 114.421 170.58 114.421C170.663 114.421 170.731 114.416 170.784 114.408C170.838 114.397 170.88 114.389 170.912 114.382L171.066 115.06C171.014 115.079 170.943 115.098 170.851 115.117C170.76 115.139 170.644 115.149 170.503 115.149C170.29 115.149 170.081 115.104 169.877 115.012C169.674 114.92 169.506 114.781 169.372 114.593C169.24 114.406 169.174 114.169 169.174 113.884V109ZM174.052 115.188C173.609 115.188 173.22 115.082 172.886 114.871C172.553 114.66 172.293 114.365 172.106 113.986C171.921 113.607 171.828 113.164 171.828 112.657C171.828 112.145 171.921 111.699 172.106 111.317C172.293 110.936 172.553 110.64 172.886 110.429C173.22 110.218 173.609 110.112 174.052 110.112C174.495 110.112 174.883 110.218 175.216 110.429C175.55 110.64 175.81 110.936 175.995 111.317C176.183 111.699 176.277 112.145 176.277 112.657C176.277 113.164 176.183 113.607 175.995 113.986C175.81 114.365 175.55 114.66 175.216 114.871C174.883 115.082 174.495 115.188 174.052 115.188ZM174.052 114.51C174.389 114.51 174.666 114.424 174.883 114.251C175.101 114.079 175.261 113.852 175.366 113.571C175.47 113.289 175.522 112.985 175.522 112.657C175.522 112.328 175.47 112.023 175.366 111.739C175.261 111.456 175.101 111.227 174.883 111.052C174.666 110.877 174.389 110.79 174.052 110.79C173.716 110.79 173.439 110.877 173.221 111.052C173.004 111.227 172.843 111.456 172.739 111.739C172.634 112.023 172.582 112.328 172.582 112.657C172.582 112.985 172.634 113.289 172.739 113.571C172.843 113.852 173.004 114.079 173.221 114.251C173.439 114.424 173.716 114.51 174.052 114.51ZM179.422 115.188C178.962 115.188 178.566 115.079 178.233 114.862C177.901 114.644 177.645 114.345 177.466 113.964C177.287 113.582 177.198 113.147 177.198 112.657C177.198 112.158 177.29 111.718 177.473 111.337C177.658 110.953 177.916 110.654 178.246 110.438C178.579 110.221 178.966 110.112 179.41 110.112C179.755 110.112 180.066 110.176 180.343 110.304C180.62 110.432 180.847 110.611 181.024 110.841C181.2 111.071 181.31 111.34 181.353 111.647H180.599C180.541 111.423 180.413 111.225 180.215 111.052C180.019 110.877 179.755 110.79 179.422 110.79C179.128 110.79 178.871 110.867 178.649 111.02C178.429 111.171 178.258 111.386 178.134 111.663C178.013 111.937 177.952 112.26 177.952 112.631C177.952 113.01 178.012 113.34 178.131 113.622C178.253 113.903 178.423 114.121 178.643 114.277C178.864 114.432 179.124 114.51 179.422 114.51C179.618 114.51 179.796 114.476 179.956 114.408C180.116 114.34 180.251 114.242 180.362 114.114C180.473 113.986 180.552 113.833 180.599 113.654H181.353C181.31 113.943 181.205 114.204 181.036 114.437C180.87 114.667 180.65 114.85 180.375 114.986C180.102 115.121 179.785 115.188 179.422 115.188ZM183.159 113.296L183.146 112.362H183.299L185.447 110.176H186.38L184.092 112.49H184.028L183.159 113.296ZM182.455 115.085V108.54H183.21V115.085H182.455ZM185.575 115.085L183.657 112.657L184.194 112.132L186.534 115.085H185.575ZM190.828 111.276L190.151 111.468C190.108 111.355 190.045 111.245 189.962 111.138C189.881 111.03 189.77 110.94 189.63 110.87C189.489 110.8 189.309 110.764 189.09 110.764C188.789 110.764 188.539 110.834 188.338 110.972C188.14 111.109 188.041 111.282 188.041 111.493C188.041 111.681 188.109 111.829 188.246 111.937C188.382 112.046 188.595 112.137 188.885 112.209L189.614 112.388C190.053 112.495 190.38 112.658 190.595 112.877C190.81 113.094 190.918 113.375 190.918 113.718C190.918 113.999 190.837 114.25 190.675 114.472C190.515 114.693 190.291 114.868 190.004 114.996C189.716 115.124 189.381 115.188 189 115.188C188.499 115.188 188.085 115.079 187.757 114.862C187.429 114.644 187.221 114.327 187.134 113.909L187.849 113.73C187.918 113.995 188.047 114.193 188.236 114.325C188.428 114.457 188.678 114.523 188.987 114.523C189.339 114.523 189.618 114.448 189.825 114.299C190.033 114.148 190.138 113.967 190.138 113.756C190.138 113.585 190.078 113.443 189.959 113.328C189.84 113.21 189.656 113.123 189.409 113.066L188.591 112.874C188.141 112.767 187.811 112.602 187.6 112.378C187.391 112.153 187.287 111.87 187.287 111.532C187.287 111.255 187.365 111.009 187.52 110.796C187.678 110.583 187.892 110.416 188.163 110.295C188.435 110.173 188.744 110.112 189.09 110.112C189.575 110.112 189.957 110.219 190.234 110.432C190.513 110.645 190.711 110.926 190.828 111.276ZM208.338 110.585H207.546C207.499 110.358 207.417 110.157 207.3 109.985C207.185 109.812 207.044 109.667 206.878 109.55C206.714 109.431 206.532 109.341 206.331 109.282C206.131 109.222 205.922 109.192 205.705 109.192C205.309 109.192 204.95 109.292 204.628 109.492C204.308 109.693 204.054 109.988 203.864 110.378C203.676 110.768 203.583 111.246 203.583 111.813C203.583 112.38 203.676 112.858 203.864 113.248C204.054 113.638 204.308 113.933 204.628 114.133C204.95 114.333 205.309 114.433 205.705 114.433C205.922 114.433 206.131 114.404 206.331 114.344C206.532 114.284 206.714 114.196 206.878 114.079C207.044 113.959 207.185 113.813 207.3 113.641C207.417 113.466 207.499 113.266 207.546 113.04H208.338C208.279 113.375 208.17 113.674 208.012 113.938C207.855 114.202 207.659 114.427 207.424 114.612C207.19 114.796 206.927 114.935 206.635 115.031C206.345 115.127 206.035 115.175 205.705 115.175C205.147 115.175 204.65 115.039 204.216 114.766C203.781 114.493 203.439 114.105 203.19 113.603C202.94 113.1 202.816 112.503 202.816 111.813C202.816 111.122 202.94 110.526 203.19 110.023C203.439 109.52 203.781 109.132 204.216 108.86C204.65 108.587 205.147 108.451 205.705 108.451C206.035 108.451 206.345 108.498 206.635 108.594C206.927 108.69 207.19 108.831 207.424 109.016C207.659 109.199 207.855 109.423 208.012 109.687C208.17 109.949 208.279 110.249 208.338 110.585ZM209.517 115.085V110.176H210.246V110.918H210.297C210.386 110.675 210.548 110.478 210.783 110.327C211.017 110.175 211.281 110.1 211.575 110.1C211.631 110.1 211.7 110.101 211.783 110.103C211.866 110.105 211.929 110.108 211.971 110.112V110.88C211.946 110.873 211.887 110.864 211.796 110.851C211.706 110.836 211.611 110.828 211.511 110.828C211.273 110.828 211.06 110.878 210.872 110.979C210.687 111.077 210.54 111.213 210.431 111.388C210.324 111.56 210.271 111.757 210.271 111.979V115.085H209.517ZM213.501 116.926C213.373 116.926 213.259 116.916 213.159 116.894C213.059 116.875 212.989 116.856 212.951 116.837L213.143 116.172C213.326 116.219 213.488 116.236 213.629 116.223C213.769 116.21 213.894 116.148 214.003 116.035C214.113 115.924 214.215 115.744 214.306 115.495L214.447 115.111L212.631 110.176H213.45L214.805 114.088H214.856L216.211 110.176H217.029L214.945 115.801C214.852 116.055 214.736 116.265 214.597 116.431C214.459 116.599 214.298 116.724 214.114 116.805C213.933 116.886 213.729 116.926 213.501 116.926ZM218.025 116.926V110.176H218.753V110.956H218.843C218.898 110.871 218.975 110.762 219.073 110.63C219.173 110.496 219.316 110.377 219.501 110.272C219.689 110.166 219.942 110.112 220.262 110.112C220.675 110.112 221.04 110.216 221.355 110.422C221.67 110.629 221.916 110.922 222.093 111.301C222.27 111.681 222.359 112.128 222.359 112.644C222.359 113.164 222.27 113.614 222.093 113.996C221.916 114.375 221.671 114.669 221.358 114.878C221.045 115.084 220.684 115.188 220.275 115.188C219.959 115.188 219.707 115.136 219.517 115.031C219.328 114.925 219.182 114.804 219.079 114.67C218.977 114.534 218.898 114.421 218.843 114.331H218.779V116.926H218.025ZM218.766 112.631C218.766 113.002 218.821 113.329 218.929 113.612C219.038 113.893 219.197 114.114 219.405 114.274C219.614 114.431 219.87 114.51 220.172 114.51C220.488 114.51 220.751 114.427 220.962 114.261C221.175 114.093 221.335 113.867 221.441 113.583C221.55 113.298 221.604 112.98 221.604 112.631C221.604 112.286 221.551 111.975 221.444 111.698C221.34 111.419 221.181 111.198 220.968 111.036C220.757 110.872 220.492 110.79 220.172 110.79C219.866 110.79 219.608 110.868 219.399 111.023C219.19 111.177 219.033 111.392 218.926 111.669C218.819 111.944 218.766 112.264 218.766 112.631ZM225.644 110.176V110.816H223.1V110.176H225.644ZM223.842 109H224.596V113.679C224.596 113.892 224.627 114.052 224.688 114.159C224.752 114.263 224.833 114.333 224.931 114.37C225.031 114.404 225.137 114.421 225.248 114.421C225.331 114.421 225.399 114.416 225.452 114.408C225.506 114.397 225.548 114.389 225.58 114.382L225.734 115.06C225.682 115.079 225.611 115.098 225.519 115.117C225.428 115.139 225.312 115.149 225.171 115.149C224.958 115.149 224.749 115.104 224.545 115.012C224.342 114.92 224.174 114.781 224.04 114.593C223.908 114.406 223.842 114.169 223.842 113.884V109ZM228.72 115.188C228.277 115.188 227.888 115.082 227.554 114.871C227.221 114.66 226.961 114.365 226.774 113.986C226.588 113.607 226.496 113.164 226.496 112.657C226.496 112.145 226.588 111.699 226.774 111.317C226.961 110.936 227.221 110.64 227.554 110.429C227.888 110.218 228.277 110.112 228.72 110.112C229.163 110.112 229.551 110.218 229.884 110.429C230.218 110.64 230.478 110.936 230.663 111.317C230.851 111.699 230.945 112.145 230.945 112.657C230.945 113.164 230.851 113.607 230.663 113.986C230.478 114.365 230.218 114.66 229.884 114.871C229.551 115.082 229.163 115.188 228.72 115.188ZM228.72 114.51C229.057 114.51 229.334 114.424 229.551 114.251C229.769 114.079 229.929 113.852 230.034 113.571C230.138 113.289 230.19 112.985 230.19 112.657C230.19 112.328 230.138 112.023 230.034 111.739C229.929 111.456 229.769 111.227 229.551 111.052C229.334 110.877 229.057 110.79 228.72 110.79C228.384 110.79 228.107 110.877 227.889 111.052C227.672 111.227 227.511 111.456 227.407 111.739C227.302 112.023 227.25 112.328 227.25 112.657C227.25 112.985 227.302 113.289 227.407 113.571C227.511 113.852 227.672 114.079 227.889 114.251C228.107 114.424 228.384 114.51 228.72 114.51ZM246.261 115.085V108.54H250.211V109.243H247.053V111.455H250.007V112.158H247.053V114.382H250.262V115.085H246.261ZM251.282 109.243V108.54H256.191V109.243H254.133V115.085H253.34V109.243H251.282ZM257.414 115.085V108.54H261.339V109.243H258.207V111.455H261.045V112.158H258.207V115.085H257.414ZM266.071 111.276L265.394 111.468C265.351 111.355 265.288 111.245 265.205 111.138C265.124 111.03 265.013 110.94 264.873 110.87C264.732 110.8 264.552 110.764 264.333 110.764C264.032 110.764 263.782 110.834 263.582 110.972C263.383 111.109 263.284 111.282 263.284 111.493C263.284 111.681 263.353 111.829 263.489 111.937C263.625 112.046 263.838 112.137 264.128 112.209L264.857 112.388C265.296 112.495 265.623 112.658 265.838 112.877C266.053 113.094 266.161 113.375 266.161 113.718C266.161 113.999 266.08 114.25 265.918 114.472C265.758 114.693 265.534 114.868 265.247 114.996C264.959 115.124 264.625 115.188 264.243 115.188C263.743 115.188 263.328 115.079 263 114.862C262.672 114.644 262.464 114.327 262.377 113.909L263.093 113.73C263.161 113.995 263.29 114.193 263.479 114.325C263.671 114.457 263.921 114.523 264.23 114.523C264.582 114.523 264.861 114.448 265.068 114.299C265.277 114.148 265.381 113.967 265.381 113.756C265.381 113.585 265.321 113.443 265.202 113.328C265.083 113.21 264.899 113.123 264.652 113.066L263.834 112.874C263.385 112.767 263.054 112.602 262.843 112.378C262.635 112.153 262.53 111.87 262.53 111.532C262.53 111.255 262.608 111.009 262.763 110.796C262.921 110.583 263.135 110.416 263.406 110.295C263.679 110.173 263.988 110.112 264.333 110.112C264.819 110.112 265.2 110.219 265.477 110.432C265.756 110.645 265.954 110.926 266.071 111.276ZM286.728 110.585H285.935C285.889 110.358 285.807 110.157 285.689 109.985C285.574 109.812 285.434 109.667 285.267 109.55C285.103 109.431 284.921 109.341 284.721 109.282C284.521 109.222 284.312 109.192 284.095 109.192C283.698 109.192 283.339 109.292 283.017 109.492C282.698 109.693 282.443 109.988 282.254 110.378C282.066 110.768 281.972 111.246 281.972 111.813C281.972 112.38 282.066 112.858 282.254 113.248C282.443 113.638 282.698 113.933 283.017 114.133C283.339 114.333 283.698 114.433 284.095 114.433C284.312 114.433 284.521 114.404 284.721 114.344C284.921 114.284 285.103 114.196 285.267 114.079C285.434 113.959 285.574 113.813 285.689 113.641C285.807 113.466 285.889 113.266 285.935 113.04H286.728C286.668 113.375 286.56 113.674 286.402 113.938C286.244 114.202 286.048 114.427 285.814 114.612C285.58 114.796 285.316 114.935 285.025 115.031C284.735 115.127 284.425 115.175 284.095 115.175C283.536 115.175 283.04 115.039 282.605 114.766C282.171 114.493 281.829 114.105 281.579 113.603C281.33 113.1 281.205 112.503 281.205 111.813C281.205 111.122 281.33 110.526 281.579 110.023C281.829 109.52 282.171 109.132 282.605 108.86C283.04 108.587 283.536 108.451 284.095 108.451C284.425 108.451 284.735 108.498 285.025 108.594C285.316 108.69 285.58 108.831 285.814 109.016C286.048 109.199 286.244 109.423 286.402 109.687C286.56 109.949 286.668 110.249 286.728 110.585ZM289.901 115.188C289.458 115.188 289.069 115.082 288.734 114.871C288.402 114.66 288.142 114.365 287.955 113.986C287.769 113.607 287.676 113.164 287.676 112.657C287.676 112.145 287.769 111.699 287.955 111.317C288.142 110.936 288.402 110.64 288.734 110.429C289.069 110.218 289.458 110.112 289.901 110.112C290.344 110.112 290.732 110.218 291.064 110.429C291.399 110.64 291.659 110.936 291.844 111.317C292.032 111.699 292.125 112.145 292.125 112.657C292.125 113.164 292.032 113.607 291.844 113.986C291.659 114.365 291.399 114.66 291.064 114.871C290.732 115.082 290.344 115.188 289.901 115.188ZM289.901 114.51C290.238 114.51 290.515 114.424 290.732 114.251C290.949 114.079 291.11 113.852 291.214 113.571C291.319 113.289 291.371 112.985 291.371 112.657C291.371 112.328 291.319 112.023 291.214 111.739C291.11 111.456 290.949 111.227 290.732 111.052C290.515 110.877 290.238 110.79 289.901 110.79C289.564 110.79 289.287 110.877 289.07 111.052C288.853 111.227 288.692 111.456 288.587 111.739C288.483 112.023 288.431 112.328 288.431 112.657C288.431 112.985 288.483 113.289 288.587 113.571C288.692 113.852 288.853 114.079 289.07 114.251C289.287 114.424 289.564 114.51 289.901 114.51ZM293.277 115.085V110.176H294.005V110.943H294.069C294.172 110.681 294.337 110.478 294.565 110.333C294.793 110.186 295.066 110.112 295.386 110.112C295.71 110.112 295.979 110.186 296.195 110.333C296.412 110.478 296.581 110.681 296.703 110.943H296.754C296.88 110.69 297.068 110.489 297.32 110.339C297.571 110.188 297.873 110.112 298.224 110.112C298.663 110.112 299.022 110.25 299.301 110.525C299.58 110.797 299.72 111.223 299.72 111.8V115.085H298.966V111.8C298.966 111.438 298.867 111.179 298.668 111.023C298.47 110.868 298.237 110.79 297.968 110.79C297.623 110.79 297.356 110.894 297.166 111.103C296.977 111.31 296.882 111.572 296.882 111.889V115.085H296.115V111.723C296.115 111.444 296.024 111.219 295.843 111.049C295.662 110.876 295.429 110.79 295.143 110.79C294.947 110.79 294.764 110.842 294.593 110.947C294.425 111.051 294.289 111.196 294.184 111.381C294.082 111.565 294.031 111.777 294.031 112.017V115.085H293.277ZM301.099 115.085V110.176H301.828V110.943H301.892C301.994 110.681 302.159 110.478 302.387 110.333C302.615 110.186 302.889 110.112 303.208 110.112C303.532 110.112 303.802 110.186 304.017 110.333C304.234 110.478 304.404 110.681 304.525 110.943H304.576C304.702 110.69 304.891 110.489 305.142 110.339C305.393 110.188 305.695 110.112 306.046 110.112C306.485 110.112 306.844 110.25 307.123 110.525C307.403 110.797 307.542 111.223 307.542 111.8V115.085H306.788V111.8C306.788 111.438 306.689 111.179 306.491 111.023C306.293 110.868 306.059 110.79 305.791 110.79C305.446 110.79 305.178 110.894 304.989 111.103C304.799 111.31 304.704 111.572 304.704 111.889V115.085H303.937V111.723C303.937 111.444 303.846 111.219 303.665 111.049C303.484 110.876 303.251 110.79 302.965 110.79C302.769 110.79 302.586 110.842 302.416 110.947C302.247 111.051 302.111 111.196 302.007 111.381C301.904 111.565 301.853 111.777 301.853 112.017V115.085H301.099ZM310.916 115.188C310.472 115.188 310.084 115.082 309.749 114.871C309.417 114.66 309.157 114.365 308.969 113.986C308.784 113.607 308.691 113.164 308.691 112.657C308.691 112.145 308.784 111.699 308.969 111.317C309.157 110.936 309.417 110.64 309.749 110.429C310.084 110.218 310.472 110.112 310.916 110.112C311.359 110.112 311.747 110.218 312.079 110.429C312.413 110.64 312.673 110.936 312.859 111.317C313.046 111.699 313.14 112.145 313.14 112.657C313.14 113.164 313.046 113.607 312.859 113.986C312.673 114.365 312.413 114.66 312.079 114.871C311.747 115.082 311.359 115.188 310.916 115.188ZM310.916 114.51C311.252 114.51 311.529 114.424 311.747 114.251C311.964 114.079 312.125 113.852 312.229 113.571C312.334 113.289 312.386 112.985 312.386 112.657C312.386 112.328 312.334 112.023 312.229 111.739C312.125 111.456 311.964 111.227 311.747 111.052C311.529 110.877 311.252 110.79 310.916 110.79C310.579 110.79 310.302 110.877 310.085 111.052C309.867 111.227 309.706 111.456 309.602 111.739C309.498 112.023 309.445 112.328 309.445 112.657C309.445 112.985 309.498 113.289 309.602 113.571C309.706 113.852 309.867 114.079 310.085 114.251C310.302 114.424 310.579 114.51 310.916 114.51ZM316.145 115.188C315.736 115.188 315.375 115.084 315.062 114.878C314.748 114.669 314.503 114.375 314.327 113.996C314.15 113.614 314.061 113.164 314.061 112.644C314.061 112.128 314.15 111.681 314.327 111.301C314.503 110.922 314.749 110.629 315.065 110.422C315.38 110.216 315.744 110.112 316.158 110.112C316.477 110.112 316.73 110.166 316.915 110.272C317.103 110.377 317.246 110.496 317.344 110.63C317.444 110.762 317.521 110.871 317.577 110.956H317.641V108.54H318.395V115.085H317.666V114.331H317.577C317.521 114.421 317.443 114.534 317.34 114.67C317.238 114.804 317.092 114.925 316.902 115.031C316.713 115.136 316.46 115.188 316.145 115.188ZM316.247 114.51C316.55 114.51 316.806 114.431 317.014 114.274C317.223 114.114 317.382 113.893 317.491 113.612C317.599 113.329 317.654 113.002 317.654 112.631C317.654 112.264 317.6 111.944 317.494 111.669C317.387 111.392 317.23 111.177 317.021 111.023C316.812 110.868 316.554 110.79 316.247 110.79C315.928 110.79 315.661 110.872 315.448 111.036C315.237 111.198 315.079 111.419 314.972 111.698C314.868 111.975 314.815 112.286 314.815 112.631C314.815 112.98 314.869 113.298 314.975 113.583C315.084 113.867 315.244 114.093 315.455 114.261C315.668 114.427 315.932 114.51 316.247 114.51ZM319.881 115.085V110.176H320.635V115.085H319.881ZM320.265 109.358C320.118 109.358 319.991 109.308 319.884 109.208C319.78 109.108 319.728 108.987 319.728 108.847C319.728 108.706 319.78 108.586 319.884 108.486C319.991 108.386 320.118 108.335 320.265 108.335C320.412 108.335 320.537 108.386 320.642 108.486C320.748 108.586 320.802 108.706 320.802 108.847C320.802 108.987 320.748 109.108 320.642 109.208C320.537 109.308 320.412 109.358 320.265 109.358ZM324.152 110.176V110.816H321.608V110.176H324.152ZM322.349 109H323.104V113.679C323.104 113.892 323.134 114.052 323.196 114.159C323.26 114.263 323.341 114.333 323.439 114.37C323.539 114.404 323.645 114.421 323.756 114.421C323.839 114.421 323.907 114.416 323.96 114.408C324.013 114.397 324.056 114.389 324.088 114.382L324.241 115.06C324.19 115.079 324.119 115.098 324.027 115.117C323.936 115.139 323.819 115.149 323.679 115.149C323.466 115.149 323.257 115.104 323.052 115.012C322.85 114.92 322.682 114.781 322.547 114.593C322.415 114.406 322.349 114.169 322.349 113.884V109ZM325.286 115.085V110.176H326.041V115.085H325.286ZM325.67 109.358C325.523 109.358 325.396 109.308 325.29 109.208C325.185 109.108 325.133 108.987 325.133 108.847C325.133 108.706 325.185 108.586 325.29 108.486C325.396 108.386 325.523 108.335 325.67 108.335C325.817 108.335 325.943 108.386 326.047 108.486C326.154 108.586 326.207 108.706 326.207 108.847C326.207 108.987 326.154 109.108 326.047 109.208C325.943 109.308 325.817 109.358 325.67 109.358ZM329.48 115.188C329.007 115.188 328.599 115.083 328.256 114.875C327.915 114.664 327.652 114.37 327.467 113.992C327.284 113.613 327.192 113.172 327.192 112.669C327.192 112.166 327.284 111.723 327.467 111.34C327.652 110.954 327.91 110.654 328.24 110.438C328.573 110.221 328.961 110.112 329.404 110.112C329.659 110.112 329.912 110.155 330.161 110.24C330.41 110.326 330.637 110.464 330.842 110.656C331.046 110.845 331.209 111.097 331.331 111.41C331.452 111.723 331.513 112.109 331.513 112.567V112.887H327.729V112.235H330.746C330.746 111.958 330.691 111.71 330.58 111.493C330.471 111.276 330.316 111.104 330.113 110.979C329.913 110.853 329.676 110.79 329.404 110.79C329.103 110.79 328.843 110.865 328.624 111.014C328.407 111.161 328.239 111.353 328.122 111.589C328.005 111.826 327.946 112.079 327.946 112.35V112.784C327.946 113.155 328.01 113.469 328.138 113.727C328.268 113.983 328.448 114.178 328.678 114.312C328.908 114.444 329.176 114.51 329.48 114.51C329.679 114.51 329.858 114.483 330.017 114.427C330.179 114.37 330.319 114.284 330.436 114.171C330.553 114.056 330.644 113.914 330.708 113.743L331.436 113.948C331.36 114.195 331.231 114.412 331.05 114.6C330.869 114.785 330.645 114.93 330.379 115.034C330.112 115.137 329.813 115.188 329.48 115.188ZM336.138 111.276L335.46 111.468C335.418 111.355 335.355 111.245 335.272 111.138C335.191 111.03 335.08 110.94 334.939 110.87C334.799 110.8 334.619 110.764 334.399 110.764C334.099 110.764 333.848 110.834 333.648 110.972C333.45 111.109 333.351 111.282 333.351 111.493C333.351 111.681 333.419 111.829 333.555 111.937C333.692 112.046 333.905 112.137 334.195 112.209L334.923 112.388C335.362 112.495 335.689 112.658 335.904 112.877C336.12 113.094 336.227 113.375 336.227 113.718C336.227 113.999 336.146 114.25 335.984 114.472C335.825 114.693 335.601 114.868 335.313 114.996C335.026 115.124 334.691 115.188 334.31 115.188C333.809 115.188 333.395 115.079 333.066 114.862C332.738 114.644 332.531 114.327 332.443 113.909L333.159 113.73C333.227 113.995 333.356 114.193 333.546 114.325C333.738 114.457 333.988 114.523 334.297 114.523C334.648 114.523 334.928 114.448 335.134 114.299C335.343 114.148 335.447 113.967 335.447 113.756C335.447 113.585 335.388 113.443 335.268 113.328C335.149 113.21 334.966 113.123 334.719 113.066L333.901 112.874C333.451 112.767 333.121 112.602 332.91 112.378C332.701 112.153 332.597 111.87 332.597 111.532C332.597 111.255 332.674 111.009 332.83 110.796C332.988 110.583 333.202 110.416 333.472 110.295C333.745 110.173 334.054 110.112 334.399 110.112C334.885 110.112 335.266 110.219 335.543 110.432C335.822 110.645 336.021 110.926 336.138 111.276Z" fill="#475569"/>
<path d="M195.633 108.872V107.722H196.157V108.872H195.633ZM196.86 108.872V107.722H197.384V108.872H196.86ZM195.633 115.904V114.753H196.157V115.904H195.633ZM196.86 115.904V114.753H197.384V115.904H196.86ZM194.687 115.085V108.54H196.975C197.431 108.54 197.807 108.619 198.103 108.777C198.399 108.932 198.62 109.142 198.765 109.406C198.91 109.668 198.982 109.959 198.982 110.279C198.982 110.56 198.932 110.792 198.832 110.975C198.734 111.159 198.604 111.304 198.442 111.41C198.282 111.517 198.108 111.595 197.921 111.647V111.71C198.121 111.723 198.323 111.794 198.525 111.921C198.727 112.049 198.897 112.233 199.033 112.471C199.17 112.71 199.238 113.002 199.238 113.347C199.238 113.675 199.163 113.97 199.014 114.232C198.865 114.494 198.629 114.702 198.308 114.855C197.986 115.009 197.567 115.085 197.052 115.085H194.687ZM195.479 114.382H197.052C197.569 114.382 197.937 114.282 198.154 114.082C198.374 113.88 198.483 113.634 198.483 113.347C198.483 113.125 198.427 112.921 198.314 112.733C198.201 112.544 198.04 112.392 197.831 112.279C197.623 112.164 197.376 112.107 197.09 112.107H195.479V114.382ZM195.479 111.416H196.949C197.188 111.416 197.403 111.37 197.595 111.276C197.789 111.182 197.942 111.05 198.055 110.88C198.17 110.709 198.228 110.509 198.228 110.279C198.228 109.991 198.128 109.747 197.927 109.547C197.727 109.344 197.41 109.243 196.975 109.243H195.479V111.416Z" fill="#F59E0B"/>
<path d="M233.937 115.715H242.937V106.715H233.937V115.715Z" fill="#8B5CF6"/>
<path d="M269.137 115.715H278.137V106.715H269.137V115.715Z" fill="#EC4899"/>
<path opacity="0.7" d="M111.946 43.2698C112.597 43.2698 113.124 42.6018 113.124 41.7778C113.124 40.9537 112.597 40.2857 111.946 40.2857C111.295 40.2857 110.768 40.9537 110.768 41.7778C110.768 42.6018 111.295 43.2698 111.946 43.2698Z" fill="#FFD700"/>
<path opacity="0.7" d="M371.778 58.9365C372.429 58.9365 372.957 58.2685 372.957 57.4444C372.957 56.6204 372.429 55.9524 371.778 55.9524C371.128 55.9524 370.6 56.6204 370.6 57.4444C370.6 58.2685 371.128 58.9365 371.778 58.9365Z" fill="#38EF7D"/>
<path opacity="0.6" d="M217.116 35.0635C217.604 35.0635 218 34.5625 218 33.9444C218 33.3264 217.604 32.8254 217.116 32.8254C216.628 32.8254 216.232 33.3264 216.232 33.9444C216.232 34.5625 216.628 35.0635 217.116 35.0635Z" fill="#D04ED6"/>
<path opacity="0.6" d="M309.619 47C310.107 47 310.503 46.499 310.503 45.881C310.503 45.2629 310.107 44.7619 309.619 44.7619C309.131 44.7619 308.735 45.2629 308.735 45.881C308.735 46.499 309.131 47 309.619 47Z" fill="#00D9FF"/>
<defs>
<filter id="filter0_f_2_3" x="29.2291" y="63" width="39.9582" height="60.7619" filterUnits="userSpaceOnUse" color-interpolation-filters="sRGB">
<feFlood flood-opacity="0" result="BackgroundImageFix"/>
<feBlend mode="normal" in="SourceGraphic" in2="BackgroundImageFix" result="shape"/>
<feGaussianBlur stdDeviation="4" result="effect1_foregroundBlur_2_3"/>
</filter>
<linearGradient id="paint0_linear_2_3" x1="37.2291" y1="4547.19" x2="37.2291" y2="71" gradientUnits="userSpaceOnUse">
<stop stop-color="#FF0844"/>
<stop offset="0.5" stop-color="#FF6B35"/>
<stop offset="1" stop-color="#FFD93D"/>
</linearGradient>
<linearGradient id="paint1_linear_2_3" x1="42.0208" y1="79.3929" x2="2316.5" y2="1248.08" gradientUnits="userSpaceOnUse">
<stop stop-color="#FFD700"/>
<stop offset="1" stop-color="#FFA500"/>
</linearGradient>
<linearGradient id="paint2_linear_2_3" x1="48.9388" y1="285.717" x2="48.9388" y2="68.62" gradientUnits="userSpaceOnUse">
<stop stop-color="#FF0844"/>
<stop offset="0.5" stop-color="#FF6B35"/>
<stop offset="1" stop-color="#FFD93D"/>
</linearGradient>
<path id="orbitPath" d="M 10 130 Q 218 90 420 20 Q 218 110 10 130 Z" fill="none"/>
</defs>
</svg>
