<svg viewBox="0 0 100 100" width="250" height="250" xmlns="http://www.w3.org/2000/svg" preserveAspectRatio="xMidYMid meet">
  <defs>
    <!-- Modern gradient -->
    <linearGradient id="modernGradient" x1="0%" y1="0%" x2="100%" y2="100%">
      <stop offset="0%" style="stop-color:#FF6B35;stop-opacity:1" />
      <stop offset="50%" style="stop-color:#F7931E;stop-opacity:1" />
      <stop offset="100%" style="stop-color:#FFC837;stop-opacity:1" />
    </linearGradient>
    <!-- Glow effect -->
    <filter id="softGlow">
      <feGaussianBlur stdDeviation="3" result="coloredBlur"/>
      <feMerge>
        <feMergeNode in="coloredBlur"/>
        <feMergeNode in="SourceGraphic"/>
      </feMerge>
    </filter>
  </defs>

  <!-- Flame only (from provided SVG): geometric flame + inner accent -->
  <g filter="url(#softGlow)">
    <!-- Flame scaled to 1:1 aspect by compressing Y -->
    <g transform="translate(50,50) scale(1,0.588) translate(-50,-50)">
      <!-- Base shape -->
      <path d="M 50 10 L 70 45 Q 75 60, 65 75 L 50 95 L 35 75 Q 25 60, 30 45 Z" 
            fill="url(#modernGradient)" 
            opacity="0.9"/>
      <!-- Inner accent -->
      <path d="M 50 25 L 60 50 Q 62 60, 57 68 L 50 80 L 43 68 Q 38 60, 40 50 Z" 
            fill="#FFEAA7" 
            opacity="0.8"/>
    </g>

    <!-- Chart bars -->
    <rect x="35" y="55" width="6" height="20" fill="#FFFFFF" opacity="0.6" rx="1">
      <animate attributeName="height" values="20;25;20" dur="1.5s" repeatCount="indefinite"/>
      <animate attributeName="y" values="55;50;55" dur="1.5s" repeatCount="indefinite"/>
    </rect>
    <rect x="47" y="50" width="6" height="25" fill="#FFFFFF" opacity="0.7" rx="1">
      <animate attributeName="height" values="25;30;25" dur="1.8s" repeatCount="indefinite"/>
      <animate attributeName="y" values="50;45;50" dur="1.8s" repeatCount="indefinite"/>
    </rect>
    <rect x="59" y="58" width="6" height="17" fill="#FFFFFF" opacity="0.6" rx="1">
      <animate attributeName="height" values="17;22;17" dur="1.6s" repeatCount="indefinite"/>
      <animate attributeName="y" values="58;53;58" dur="1.6s" repeatCount="indefinite"/>
    </rect>

    <!-- Animated trend line crossing bars -->
    <polyline points="32,65 42,60 50,55 58,58 68,52" 
              fill="none" 
              stroke="#FFFFFF" 
              stroke-width="2.5" 
              stroke-linecap="round"
              opacity="0.85">
      <animate attributeName="stroke-dasharray" 
               values="0,120;120,0;0,120" 
               dur="3s" 
               repeatCount="indefinite"/>
    </polyline>
  </g>
</svg>
