<svg xmlns="http://www.w3.org/2000/svg" width="74" height="40" viewBox="0 0 74 40" fill="none"><g clip-path="url(#clip0_209_3865)"><path d="M29.7456 16.3791C31.4268 16.3791 32.7283 17.0571 33.7587 18.3041C33.9485 18.548 33.894 18.8736 33.6229 19.0634L32.3754 20.2564C32.1316 20.4734 31.8873 20.3377 31.6975 20.1751C31.2638 19.6869 30.5858 19.3073 29.8265 19.3073C28.3624 19.3073 27.169 20.5547 27.169 22.0728C27.169 23.591 28.3347 24.8384 29.7992 24.8384C30.9654 24.8384 31.4804 24.269 31.9686 23.808C32.1584 23.6182 32.4295 23.5642 32.6466 23.7267L33.8127 24.7299C34.0838 24.947 34.1924 25.2181 34.0025 25.4892C33.0807 26.9265 31.6434 27.767 29.7184 27.767C26.6545 27.767 23.9697 25.3266 23.9697 22.0728C23.9697 18.8191 26.7085 16.3787 29.7452 16.3787L29.7456 16.3791Z" fill="white" style="fill:white;fill-opacity:1;"></path><path d="M35.4545 9.28793C35.4545 9.01682 35.6984 8.77295 35.9695 8.77295H38.2746C38.5457 8.77295 38.7896 9.01682 38.7896 9.28793V17.2736C39.3318 16.8667 40.3894 16.379 41.6637 16.379C45.1073 16.379 46.5173 19.0365 46.5173 21.7748V26.9808C46.5173 27.2519 46.2735 27.4958 46.0023 27.4958H43.8058C43.5074 27.4958 43.2904 27.2519 43.2904 26.9808V21.7476C43.2904 20.2562 42.4498 19.3071 41.1483 19.3071C39.8468 19.3071 39.0603 20.1205 38.7891 21.2321V26.9808C38.7891 27.2792 38.6266 27.4958 38.2197 27.4958H35.9691C35.698 27.4958 35.4541 27.2519 35.4541 26.9808V9.28793H35.4545Z" fill="white" style="fill:white;fill-opacity:1;"></path><path d="M59.71 10.607C59.71 9.57666 60.5233 8.73608 61.5537 8.73608C62.5841 8.73608 63.4519 9.57666 63.4519 10.607C63.4519 11.6374 62.6113 12.478 61.5537 12.478C60.496 12.478 59.71 11.6374 59.71 10.607ZM59.9538 17.1651C59.9538 16.8667 60.1977 16.6501 60.4688 16.6501H62.7194C62.9905 16.6501 63.2348 16.8672 63.2348 17.1651V26.9809C63.2348 27.252 62.991 27.4958 62.7194 27.4958H60.4688C60.1977 27.4958 59.9538 27.252 59.9538 26.9809V17.1651Z" fill="white" style="fill:white;fill-opacity:1;"></path><path d="M54.2744 9.28793C54.2744 9.01682 54.5183 8.77295 54.7894 8.77295H57.0672C57.3384 8.77295 57.5822 9.01682 57.5822 9.28793V26.9812C57.5822 27.2524 57.3384 27.4962 57.0672 27.4962H54.7894C54.5183 27.4962 54.2744 27.2524 54.2744 26.9812V9.28793Z" fill="white" style="fill:white;fill-opacity:1;"></path><path d="M48.4229 13.5008C48.4229 12.4705 49.2362 11.6299 50.2666 11.6299C51.297 11.6299 52.1648 12.4705 52.1648 13.5008C52.1648 14.5312 51.3242 15.3718 50.2666 15.3718C49.2089 15.3718 48.4229 14.5312 48.4229 13.5008ZM48.6667 17.165C48.6667 16.8667 48.9106 16.65 49.1817 16.65H51.4323C51.7034 16.65 51.9477 16.8671 51.9477 17.165V26.9808C51.9477 27.2519 51.7039 27.4957 51.4323 27.4957H49.1817C48.9106 27.4957 48.6667 27.2519 48.6667 26.9808V17.165Z" fill="white" style="fill:white;fill-opacity:1;"></path><path d="M64.7432 26.7098L68.5936 19.6056V19.5516H65.5024C65.2313 19.5516 65.0143 19.3077 65.0143 19.0366V17.1656C65.0143 16.8673 65.2313 16.6506 65.5024 16.6506H72.6612C73.068 16.6506 73.3391 17.0303 73.1221 17.3827L69.1903 24.5409V24.6222H72.1189C72.4173 24.6222 72.6344 24.8393 72.6344 25.1372V26.9809C72.6344 27.252 72.4173 27.4959 72.1189 27.4959H65.2586C64.9875 27.4959 64.7432 27.252 64.7432 26.9809V26.7098Z" fill="white" style="fill:white;fill-opacity:1;"></path><path d="M0.88927 9.44595L6.60015 5.9224C7.10283 5.63767 7.10239 5.05063 6.74076 4.6912L1.97063 0.0805772C1.87704 -0.0125756 1.72545 -0.0121362 1.6323 0.081456L1.18191 0.534477C0.605418 1.11449 0.608054 2.05173 1.18762 2.62866L3.04936 4.34715C3.36573 4.66176 3.30553 5.18948 2.92633 5.42456L0.700767 6.78714C0.00563661 7.21775 -0.208351 8.13083 0.222261 8.82552L0.558841 9.36818C0.628706 9.48066 0.776784 9.51538 0.88927 9.44551V9.44595Z" fill="white" style="fill:white;fill-opacity:1;"></path><path d="M6.39962 28.3524C6.86846 26.3236 6.31262 24.1943 4.91181 22.6538L1.30654 18.5652C-0.700642 16.2895 -0.20456 12.7594 2.35231 11.1248L8.25169 7.35342C8.63265 7.11 9.12962 7.15438 9.4618 7.46108C11.6201 9.452 19.129 16.6252 18.796 24.0331C18.796 24.0331 18.8048 35.537 7.47571 39.8422C5.81127 40.475 4.12573 38.9533 4.56161 37.2265C6.12676 31.0252 6.39962 28.3519 6.39962 28.3519V28.3524ZM7.87601 10.6384C6.97392 11.21 5.22599 12.3173 3.73422 13.2629C2.73591 13.8957 2.53466 15.267 3.30756 16.1612L7.07718 20.52C9.23727 22.8959 10.0945 26.18 9.37129 29.308L8.73943 32.0802C8.4648 33.2842 9.88582 34.1261 10.8204 33.3193C14.7922 29.8907 20.3611 21.6489 8.7469 10.7197C8.51006 10.4969 8.15107 10.4644 7.87645 10.6384H7.87601Z" fill="white" style="fill:white;fill-opacity:1;"></path></g><defs><clipPath id="clip0_209_3865"><rect width="73.1983" height="39.9779" fill="white" style="fill:white;fill-opacity:1;" transform="translate(0 0.0109863)"></rect></clipPath></defs></svg>