<?xml version="1.0" encoding="utf-8"?>
<!-- Svg Vector Icons : http://www.onlinewebfonts.com/icon -->
<!DOCTYPE svg PUBLIC "-//W3C//DTD SVG 1.1//EN" "http://www.w3.org/Graphics/SVG/1.1/DTD/svg11.dtd">
<svg version="1.1" xmlns="http://www.w3.org/2000/svg" xmlns:xlink="http://www.w3.org/1999/xlink" x="0px" y="0px" viewBox="0 0 256 256" enable-background="new 0 0 256 256" xml:space="preserve">
<metadata> Svg Vector Icons : http://www.onlinewebfonts.com/icon </metadata>
<g><g><path fill="#000000" d="M19.2,62h21.9C44.8,72.6,55,80.2,66.8,80.2c11.8,0,21.9-7.6,25.6-18.2h147c3.6,0,6.6-2.9,6.6-6.6c0-3.6-2.9-6.6-6.6-6.6H93.6c-2-13-13.3-22.9-26.8-22.9C53.3,25.9,42,35.9,40,48.8H19.2c-3.6,0-6.6,2.9-6.6,6.6C12.6,59,15.6,62,19.2,62z M66.8,34.1c10.5,0,19,8.5,19,19c0,10.5-8.5,19-19,19c-10.5,0-19-8.5-19-19C47.8,42.6,56.3,34.1,66.8,34.1z"/><path fill="#000000" d="M239.2,121.8h-31.9c-3.2-11.3-13.6-19.5-25.8-19.5c-12.3,0-22.7,8.3-25.8,19.5h-139c-3.7,0-6.6,3-6.6,6.6c0,3.7,3,6.6,6.6,6.6h138.6c2.7,12,13.4,20.9,26.2,20.9s23.5-9,26.2-20.9h31.5c3.7,0,6.6-3,6.6-6.6C245.8,124.8,242.9,121.8,239.2,121.8z M181.5,147.9c-10.3,0-18.8-8.4-18.8-18.8c0-10.3,8.4-18.8,18.8-18.8c10.3,0,18.8,8.4,18.8,18.8C200.2,139.5,191.8,147.9,181.5,147.9z"/><path fill="#000000" d="M239.2,196.8H126.8c-2.9-11.7-13.5-20.4-26.1-20.4s-23.2,8.7-26.1,20.4h-58c-3.6,0-6.6,3-6.6,6.6c0,3.7,3,6.6,6.6,6.6h58.1c3,11.5,13.5,20,26,20c12.4,0,22.9-8.5,26-20h112.5c3.7,0,6.6-3,6.6-6.6C245.8,199.8,242.9,196.8,239.2,196.8z M100.7,222c-10.3,0-18.8-8.4-18.8-18.8c0-10.3,8.4-18.8,18.8-18.8c10.3,0,18.8,8.4,18.8,18.8S111.1,222,100.7,222z"/></g></g>
</svg>